<?xml version="1.0" encoding="UTF-8" standalone="no"?>
<!-- Created with Inkscape (http://www.inkscape.org/) -->

<svg
   width="30.200554mm"
   height="30.902103mm"
   viewBox="0 0 30.200554 30.902103"
   version="1.1"
   id="svg1"
   xmlns="http://www.w3.org/2000/svg"
   xmlnsSvg="http://www.w3.org/2000/svg">
   <defs
      id="defs1" />
   <g
      id="layer1"
      transform="translate(-81.070574,-127.23528)">
      <g
         id="g4">
         <path
            id="path1"
            style="fill:none;stroke-width:0.0534992"
            d="M 107.14445,142.55272 A 10.32288,10.32288 0 0 1 96.821571,152.8756 10.32288,10.32288 0 0 1 86.498692,142.55272 10.32288,10.32288 0 0 1 96.821571,132.22984 10.32288,10.32288 0 0 1 107.14445,142.55272 Z" />
         <path
            d="m 112.24549,144.34514 -0.45887,1.81366 q -0.15521,0.6135 -0.33051,0.91158 -0.2368,0.40024 -0.64002,0.62639 -0.40322,0.22615 -0.91663,0.26747 -0.51005,0.0422 -1.20065,-0.13255 -0.60679,-0.15352 -1.00779,-0.41549 -0.48974,-0.3201 -0.73512,-0.74601 -0.18612,-0.32176 -0.21581,-0.79655 -0.0208,-0.35483 0.1183,-0.90463 l 0.47243,-1.8673 z m -1.08246,0.78197 -3.25522,-0.82358 -0.18745,0.74088 q -0.10517,0.41571 -0.10489,0.61196 -7.2e-4,0.25665 0.10357,0.45068 0.10344,0.19739 0.40653,0.38109 0.30645,0.18454 0.87636,0.32873 0.56992,0.14419 0.90043,0.1208 0.33052,-0.0234 0.5473,-0.16116 0.21677,-0.13778 0.34752,-0.40076 0.0995,-0.19598 0.25304,-0.80277 z m -5.49078,2.76199 4.20981,2.82446 -0.57029,0.85001 -4.20981,-2.82446 z m -2.11854,2.50876 4.52706,2.91364 -0.87988,0.67676 -3.30442,-2.19187 1.30346,3.73092 -0.86069,0.662 -1.6517,-5.12523 z m -4.199535,2.16405 0.48518,2.07773 2.475945,2.43671 -1.16851,0.27287 -1.617864,-1.68184 -0.68212,2.21892 -1.148308,0.26815 1.14588,-3.28957 -0.483608,-2.07099 z m -7.213667,-0.46727 1.087677,0.2384 0.185823,1.2196 1.979436,0.43386 0.655269,-1.03525 1.060654,0.23248 -3.014162,4.52922 -1.057276,-0.23174 z m 1.411525,2.36267 0.279566,1.98712 1.071585,-1.69097 z m -1.970127,-2.67951 -3.45341,3.71134 -1.121503,-1.04356 1.68226,-3.15822 -3.021482,1.91207 -1.124034,-1.04592 3.45341,-3.71134 0.696193,0.64781 -2.718442,2.92148 3.45514,-2.23598 0.721509,0.67136 -1.984275,3.60463 2.718442,-2.92148 z m -5.947625,-5.79572 -0.945993,0.2221 -0.436303,-1.85832 0.945993,-0.2221 z m 2.05484,-8.86618 -0.325514,1.06485 -1.23063,0.0867 -0.592396,1.93791 0.978911,0.73678 -0.317427,1.0384 -4.270835,-3.3703 0.316417,-1.03509 z m -2.469011,1.21598 -2.003215,0.11808 1.598849,1.20472 z m 2.901125,-1.69706 -3.559955,-3.60927 1.533815,-1.51286 q 0.578566,-0.57066 0.93667,-0.72959 0.358137,-0.16381 0.760967,-0.0706 0.40283,0.0933 0.718515,0.41331 0.400677,0.40623 0.424126,0.90767 0.02102,0.49898 -0.386148,1.03659 0.372338,-0.0952 0.68768,-0.0809 0.317804,0.012 0.994021,0.17556 l 1.135202,0.26946 -0.871542,0.85963 -1.301506,-0.2657 q -0.695914,-0.14417 -0.906164,-0.15051 -0.212679,-0.009 -0.367246,0.0659 -0.156995,0.0723 -0.408117,0.31997 l -0.147719,0.1457 1.486148,1.50674 z m -1.325634,-2.80163 0.539174,-0.53181 q 0.524403,-0.51724 0.611177,-0.69025 0.08677,-0.17302 0.05379,-0.3542 -0.03299,-0.18118 -0.193258,-0.34367 -0.179698,-0.18218 -0.387453,-0.19584 -0.207721,-0.0186 -0.414124,0.12675 -0.100773,0.0751 -0.54393,0.51221 l -0.568718,0.56095 z m 4.319359,-3.02526 q -0.201989,-0.74781 -0.115377,-1.31566 0.06593,-0.419 0.272777,-0.79366 0.210189,-0.37558 0.515272,-0.61201 0.405064,-0.31716 1.002643,-0.47857 1.08165,-0.29216 1.910554,0.20392 0.832242,0.49519 1.155063,1.69035 0.320115,1.18514 -0.142952,2.0302 -0.46397,0.84172 -1.542282,1.13298 -1.091666,0.29486 -1.915428,-0.19545 -0.824663,-0.49365 -1.14027,-1.6621 z m 1.009203,-0.30841 q 0.224532,0.83127 0.724775,1.15822 0.499341,0.32362 1.090243,0.16402 0.590901,-0.15961 0.853623,-0.68549 0.265159,-0.53011 0.03522,-1.38141 -0.227237,-0.84129 -0.709618,-1.15516 -0.479042,-0.31477 -1.089974,-0.14976 -0.610932,0.16502 -0.871218,0.68666 -0.261187,0.5183 -0.03305,1.36292 z m 5.284855,1.54738 1.25828,-4.91089 2.086962,0.53473 q 0.78721,0.2017 1.10797,0.42667 0.32496,0.22249 0.45266,0.61575 0.1277,0.39327 0.0161,0.82875 -0.14162,0.55273 -0.55925,0.83126 -0.41678,0.27518 -1.08733,0.20332 0.27352,0.26999 0.4237,0.54764 0.15354,0.27852 0.36185,0.94232 l 0.35415,1.1117 -1.18585,-0.30384 -0.44307,-1.25228 q -0.235113,-0.67068 -0.338041,-0.85412 -0.10207,-0.18679 -0.245781,-0.28073 -0.142851,-0.0973 -0.484537,-0.18484 l -0.200991,-0.0515 -0.525285,2.05011 z m 1.717686,-2.57992 0.733618,0.18797 q 0.713518,0.18282 0.906508,0.16801 0.193,-0.0148 0.33126,-0.13645 0.13826,-0.12164 0.19491,-0.34273 0.0635,-0.24789 -0.0319,-0.43297 -0.0912,-0.18757 -0.32205,-0.28956 -0.1163,-0.0477 -0.71928,-0.20215 l -0.773815,-0.19827 z m 6.582816,7.19957 -0.82709,-0.74551 0.44219,-1.1517 -1.50521,-1.35674 -1.08179,0.57521 -0.80654,-0.72699 4.86084,-2.4436 0.80398,0.72467 z m -0.0571,-2.75161 0.74063,-1.86502 -1.76808,0.93892 z m 2.10266,4.46964 0.92907,-0.28472 0.55931,1.82507 -0.92906,0.28472 z"
            id="text1"
            style="font-weight:bold;font-size:7.08212px;line-height:1.25;font-family:Arial;-inkscape-font-specification:'Arial, Bold';fill:#333;stroke-width:0.264583"
            transform="matrix(0.99624911,0,0,0.99624911,-0.55334033,0.57613827)"
            aria-label="DIVYAM - ARORA - " />
      </g>
   </g>
</svg>